<svg width="48" height="48" viewBox="0 0 48 48" fill="none" xmlns="http://www.w3.org/2000/svg">
<path d="M44 21.9999C44 33.0456 35.0457 40.1665 24 40.1665C12.9543 40.1665 4 32.0456 4 20.9999" stroke="white" stroke-width="2" stroke-linecap="round"/>
<path d="M19.0607 27.5923C19.006 27.5923 18.9506 27.5861 18.895 27.5732C15.2766 26.737 12.2749 24.8585 10.2146 22.1408C8.29268 19.608 7.27673 16.4466 7.27673 12.9984C7.27673 11.5575 7.45287 10.069 7.80021 8.5742C7.8806 8.22815 8.1928 7.98742 8.54553 8.00051C13.7684 8.18933 18.1582 10.2878 20.9062 13.9093C22.122 15.5114 22.9736 17.3498 23.4373 19.3731C23.4865 19.5881 23.4386 19.814 23.3062 19.9898C23.0773 20.2938 22.8566 20.6141 22.6503 20.9419C22.4319 21.2887 21.9756 21.3915 21.6314 21.1715C21.2871 20.9515 21.1851 20.4919 21.4036 20.1451C21.5679 19.8841 21.7406 19.6273 21.919 19.3781C21.4887 17.6926 20.7543 16.1581 19.7333 14.8126C17.3653 11.6918 13.6086 9.82547 9.10725 9.51884C8.87227 10.6975 8.75341 11.8652 8.75341 12.9983C8.75341 16.1171 9.66446 18.9663 11.388 21.2377C13.2368 23.6763 15.9469 25.3657 19.2253 26.1234C19.6227 26.2152 19.871 26.6142 19.7798 27.0145C19.7012 27.3591 19.3971 27.5923 19.0607 27.5923ZM20.4082 24.7028C20.3284 24.7028 20.2473 24.6896 20.1676 24.6619C19.7821 24.5281 19.5773 24.1048 19.7102 23.7165L19.7356 23.6428C19.8703 23.2551 20.2913 23.0508 20.6762 23.1864C21.061 23.322 21.2638 23.7462 21.1292 24.1339L21.1061 24.2011C21.0007 24.5092 20.7144 24.7028 20.4082 24.7028Z" fill="white"/>
<path d="M25.8081 29.0037C23.7018 29.0037 21.5358 28.5887 19.3701 27.7701C19.0397 27.6452 18.8433 27.3024 18.9011 26.9518C18.9048 26.9297 18.9087 26.9078 18.9127 26.8858L18.9195 26.8481C19.4286 23.8538 20.5087 21.244 22.1299 19.0909C23.2857 17.5557 24.6915 16.3008 26.3081 15.3608C28.4771 14.0997 30.9081 13.4602 33.5334 13.4602C34.3684 13.4602 35.2256 13.5269 36.0815 13.6586C36.4845 13.7205 36.7613 14.1 36.6998 14.506C36.6383 14.912 36.2615 15.1908 35.8586 15.129C35.0763 15.0086 34.294 14.9476 33.5334 14.9476C31.1705 14.9476 28.9879 15.5201 27.0462 16.6491C25.6009 17.4895 24.3426 18.6135 23.3062 19.9898C21.922 21.8283 20.9686 24.0452 20.4687 26.5864C22.2728 27.2037 24.0662 27.5163 25.8081 27.5163C28.1723 27.5163 30.3557 26.9433 32.2975 25.813C34.9361 24.2787 36.9474 21.7887 38.1146 18.6118C38.2561 18.2266 38.6808 18.0298 39.0631 18.1725C39.4455 18.315 39.6407 18.7429 39.4992 19.1281C38.2111 22.6344 35.9761 25.3914 33.0359 27.1011C30.8668 28.3635 28.4349 29.0037 25.8081 29.0037ZM39.607 16.094C39.5221 16.094 39.4357 16.0791 39.3514 16.0478L39.2854 16.0235C38.9023 15.8831 38.7044 15.4566 38.8437 15.0705C38.9829 14.6845 39.4062 14.4851 39.7896 14.6255L39.8626 14.6525C40.2452 14.7947 40.4407 15.2224 40.2995 15.6078C40.1895 15.908 39.9072 16.094 39.607 16.094Z" fill="white"/>
<path d="M20.4031 27.4435C20.236 27.4435 20.0681 27.3867 19.9299 27.2703C19.6171 27.0068 19.5756 26.5378 19.8371 26.2228C23.0777 22.3192 27.0373 20.3353 29.7883 19.3584C32.7727 18.2987 34.9807 18.1623 35.0732 18.157C35.4799 18.1336 35.829 18.4473 35.8521 18.8574C35.8752 19.2672 35.5644 19.6183 35.1577 19.642C35.1367 19.6433 33.0276 19.7783 30.2306 20.7785C27.6683 21.6948 23.9817 23.5488 20.9697 27.1769C20.8238 27.3529 20.6141 27.4435 20.4031 27.4435Z" fill="white"/>
<path d="M28.1461 21.2037C28.043 21.2037 27.9384 21.182 27.8387 21.1358C27.468 20.9645 27.3054 20.523 27.4755 20.1497C28.5426 17.8068 30.6907 16.0532 30.7816 15.9797C31.0995 15.7227 31.5643 15.7739 31.8194 16.0942C32.0745 16.4145 32.0238 16.8823 31.7061 17.1395C31.6765 17.1636 29.7338 18.7582 28.8175 20.77C28.6932 21.0428 28.4257 21.2037 28.1461 21.2037Z" fill="white"/>
<path d="M25.2338 25.8103C24.0965 25.8103 23.2121 25.4242 22.4038 25.0287C22.037 24.8492 21.8841 24.4043 22.0623 24.0348C22.2403 23.6653 22.6819 23.5112 23.0488 23.6908C23.7298 24.0239 24.4093 24.3229 25.2339 24.3229C26.23 24.3229 27.2907 23.8855 28.4766 22.9857C28.8022 22.7386 29.2652 22.8042 29.5104 23.1323C29.7557 23.4604 29.6905 23.9267 29.3649 24.1738C27.9136 25.275 26.5623 25.8103 25.2338 25.8103Z" fill="white"/>
<path d="M19.6283 26.6637C19.2483 26.6637 18.9256 26.3701 18.8934 25.9817C18.2335 18.003 11.5381 13.3205 11.4706 13.2741C11.1336 13.0429 11.0465 12.5802 11.2761 12.2407C11.5057 11.9012 11.965 11.8136 12.3019 12.0448C12.3774 12.0967 14.1724 13.3404 16.0663 15.6579C17.8198 17.8037 19.989 21.315 20.3649 25.8581C20.3988 26.2674 20.0968 26.627 19.6905 26.661C19.6696 26.6628 19.6489 26.6637 19.6283 26.6637Z" fill="white"/>
</svg>
